<?xml version="1.0" encoding="utf-8"?>
<!-- Generator: Adobe Illustrator 21.0.0, SVG Export Plug-In . SVG Version: 6.00 Build 0)  -->
<svg version="1.1" id="Layer_1" xmlns="http://www.w3.org/2000/svg" xmlns:xlink="http://www.w3.org/1999/xlink" x="0px" y="0px"
	 viewBox="0 0 80 80" style="enable-background:new 0 0 80 80;" xml:space="preserve">
<path d="M35.9,11c-3.2,2.7-3.9,2.8-7.2,1.9c-4.6-1.3-5.4-0.8-6.7,4.1c-0.9,3.4-1.6,4.1-5,5c-4.9,1.3-5.4,2.1-4.1,6.6
	c0.9,3.3,0.7,4-2.1,7.4l-3,3.9l3.1,3.8c2.8,3.5,3,4.1,2,7.6c-1.3,4.6-0.8,5.4,4.1,6.7c3.4,0.9,4.1,1.6,5,5c1.3,4.9,2.1,5.4,6.6,4.1
	c3.3-0.9,4-0.7,7.5,2.1l3.8,3.1l3.6-3.2c2.9-2.5,4.1-3,6.3-2.4c5.5,1.4,6.4,1,7.9-3.4c1.3-3.7,2-4.4,5.3-5.3
	c4.9-1.3,5.3-2.1,4.1-6.7c-1-3.5-0.8-4.1,2-7.6l3-3.7l-3-3.9c-2.8-3.4-2.9-4.1-2-7.5c1.3-4.5,0.8-5.3-4.1-6.6c-3.4-0.9-4.1-1.6-5-5
	c-1.3-4.9-2.1-5.4-6.6-4.1C48,13.8,47.3,13.7,44,11c-2.1-1.7-3.9-3-4.1-3C39.7,8.1,37.9,9.4,35.9,11z M55.8,30.4
	C56.3,32.5,37.5,52,35.1,52c-2,0-11.1-9-11.1-11c0-1.7,1.9-4,3.2-4c0.4,0,2.5,1.6,4.6,3.5l3.8,3.4l8-8
	C51.6,27.8,55.1,26.3,55.8,30.4z"/>
</svg>
